HIERARCHY
ROOT Root
{
	OFFSET 0.000000 0.000000 0.000000
	CHANNELS 6 Xposition Yposition Zposition Xrotation Yrotation Zrotation
	End Site
	{
		OFFSET 0.000000 0.000000 0.000000
	}
}
MOTION
Frames: 120
Frame Time: 0.033333
0.719620 -0.812353 -0.000363 0.604800 0.381800 21.963800 
0.719612 -0.812371 -0.000338 0.604500 0.381200 21.963100 
0.719602 -0.812368 -0.000323 0.604100 0.380700 21.964000 
0.719602 -0.812343 -0.000338 0.603900 0.380700 21.966600 
0.719605 -0.812330 -0.000358 0.603500 0.380600 21.968400 
0.719610 -0.812358 -0.000340 0.602700 0.379400 21.967700 
0.719612 -0.812396 -0.000302 0.601800 0.377500 21.966300 
0.719615 -0.812389 -0.000307 0.601800 0.377300 21.966800 
0.719620 -0.812350 -0.000351 0.602600 0.378800 21.968800 
0.719625 -0.812338 -0.000366 0.603200 0.379500 21.969700 
0.719630 -0.812368 -0.000330 0.603000 0.377700 21.968800 
0.719623 -0.812389 -0.000305 0.602800 0.376500 21.967200 
0.719607 -0.812363 -0.000330 0.603200 0.378600 21.966600 
0.719597 -0.812335 -0.000361 0.603500 0.381100 21.967000 
0.719612 -0.812353 -0.000340 0.603100 0.379300 21.967500 
0.719635 -0.812394 -0.000302 0.602900 0.375500 21.967500 
0.719630 -0.812394 -0.000312 0.603300 0.375800 21.967400 
0.719610 -0.812350 -0.000356 0.603400 0.379500 21.967700 
0.719605 -0.812335 -0.000366 0.603000 0.380200 21.968100 
0.719618 -0.812373 -0.000338 0.603900 0.377300 21.967300 
0.719592 -0.812416 -0.000343 0.606300 0.378500 21.964800 
0.719521 -0.812401 -0.000406 0.608600 0.385900 21.962100 
0.719470 -0.812371 -0.000460 0.609100 0.390800 21.961300 
0.719485 -0.812389 -0.000452 0.609200 0.387700 21.961400 
0.719503 -0.812427 -0.000417 0.609600 0.385200 21.959900 
0.719437 -0.812401 -0.000419 0.609300 0.392600 21.956100 
0.719336 -0.812328 -0.000452 0.608700 0.403700 21.952700 
0.719318 -0.812312 -0.000465 0.610200 0.405200 21.952000 
0.719397 -0.812386 -0.000442 0.614000 0.396700 21.953700 
0.719468 -0.812442 -0.000427 0.616900 0.390500 21.956000 
0.719468 -0.812411 -0.000457 0.617100 0.392400 21.957500 
0.719442 -0.812366 -0.000495 0.616300 0.395600 21.958000 
0.719450 -0.812389 -0.000483 0.616400 0.393300 21.957600 
0.719475 -0.812442 -0.000434 0.616700 0.388600 21.957200 
0.719475 -0.812442 -0.000427 0.616600 0.388700 21.956800 
0.719455 -0.812391 -0.000480 0.617500 0.394200 21.955600 
0.719445 -0.812371 -0.000523 0.619200 0.398300 21.953600 
0.719465 -0.812404 -0.000498 0.620000 0.396400 21.952300 
0.719485 -0.812437 -0.000447 0.619300 0.392000 21.952900 
0.719480 -0.812422 -0.000450 0.618300 0.391300 21.954800 
0.719450 -0.812383 -0.000490 0.617800 0.394200 21.956400 
0.719437 -0.812389 -0.000485 0.617100 0.394500 21.956500 
0.719458 -0.812447 -0.000419 0.617100 0.389300 21.954900 
0.719491 -0.812505 -0.000366 0.618300 0.383300 21.952900 
0.719503 -0.812518 -0.000361 0.619500 0.381200 21.951900 
0.719501 -0.812516 -0.000358 0.619000 0.381600 21.951600 
0.719498 -0.812541 -0.000328 0.618100 0.380300 21.950800 
0.719501 -0.812571 -0.000305 0.618400 0.378200 21.949600 
0.719503 -0.812564 -0.000325 0.619200 0.378400 21.949900 
0.719501 -0.812526 -0.000358 0.618600 0.380600 21.951600 
0.719503 -0.812526 -0.000356 0.617900 0.381300 21.952000 
0.719511 -0.812574 -0.000325 0.618700 0.379300 21.950300 
0.719521 -0.812592 -0.000300 0.618900 0.376700 21.949900 
0.719539 -0.812549 -0.000290 0.616500 0.375800 21.952500 
0.719541 -0.812505 -0.000300 0.614600 0.376700 21.954700 
0.719513 -0.812533 -0.000340 0.617500 0.379500 21.952600 
0.719460 -0.812587 -0.000399 0.623800 0.384500 21.947600 
0.719402 -0.812589 -0.000462 0.627800 0.391900 21.944000 
0.719353 -0.812536 -0.000511 0.628200 0.399800 21.943200 
0.719328 -0.812510 -0.000521 0.627700 0.403700 21.943000 
0.719336 -0.812549 -0.000485 0.627900 0.401700 21.942400 
0.719358 -0.812592 -0.000450 0.627900 0.398200 21.942300 
0.719369 -0.812576 -0.000462 0.627500 0.399100 21.943500 
0.719358 -0.812533 -0.000505 0.627200 0.402800 21.945100 
0.719361 -0.812536 -0.000505 0.627300 0.402600 21.945500 
0.719379 -0.812579 -0.000465 0.627500 0.397700 21.944700 
0.719376 -0.812589 -0.000460 0.628300 0.395600 21.943700 
0.719331 -0.812549 -0.000523 0.630000 0.399900 21.943000 
0.719282 -0.812526 -0.000574 0.631300 0.404300 21.941500 
0.719267 -0.812569 -0.000554 0.631800 0.403100 21.939400 
0.719280 -0.812612 -0.000523 0.632000 0.399700 21.938500 
0.719290 -0.812589 -0.000536 0.632300 0.400200 21.939700 
0.719285 -0.812538 -0.000566 0.632500 0.403300 21.941100 
0.719262 -0.812531 -0.000571 0.633100 0.404300 21.940100 
0.719219 -0.812549 -0.000572 0.634100 0.404000 21.938000 
0.719178 -0.812523 -0.000610 0.634500 0.406200 21.937200 
0.719163 -0.812465 -0.000658 0.634300 0.409900 21.937600 
0.719173 -0.812449 -0.000668 0.634700 0.410400 21.937100 
0.719178 -0.812503 -0.000627 0.635600 0.407000 21.935400 
0.719165 -0.812576 -0.000592 0.634600 0.404200 21.934700 
0.719150 -0.812615 -0.000599 0.630900 0.405100 21.936000 
0.719168 -0.812617 -0.000620 0.627000 0.406300 21.938500 
0.719214 -0.812625 -0.000602 0.625600 0.403500 21.940500 
0.719252 -0.812658 -0.000549 0.625800 0.398700 21.940700 
0.719257 -0.812683 -0.000521 0.625800 0.397900 21.940100 
0.719252 -0.812665 -0.000544 0.625400 0.401100 21.940800 
0.719262 -0.812630 -0.000579 0.625100 0.402300 21.942700 
0.719257 -0.812632 -0.000582 0.625600 0.400700 21.942300 
0.719188 -0.812660 -0.000566 0.626700 0.404200 21.937600 
0.719066 -0.812640 -0.000579 0.627500 0.417100 21.931700 
0.718965 -0.812579 -0.000612 0.627700 0.430900 21.928800 
0.718937 -0.812561 -0.000625 0.627500 0.434600 21.928300 
0.718970 -0.812612 -0.000607 0.627800 0.427600 21.928200 
0.719033 -0.812648 -0.000592 0.628200 0.418700 21.930000 
0.719094 -0.812615 -0.000605 0.628400 0.414600 21.934100 
0.719125 -0.812576 -0.000640 0.629200 0.414100 21.937200 
0.719143 -0.812597 -0.000650 0.630600 0.411200 21.937500 
0.719183 -0.812640 -0.000605 0.629800 0.403300 21.937500 
0.719231 -0.812632 -0.000531 0.625200 0.396400 21.939300 
0.719224 -0.812579 -0.000485 0.619800 0.398600 21.939800 
0.719160 -0.812546 -0.000472 0.617800 0.407600 21.936700 
0.719112 -0.812566 -0.000450 0.618300 0.413200 21.933100 
0.719120 -0.812599 -0.000419 0.618100 0.411600 21.932600 
0.719148 -0.812587 -0.000414 0.616400 0.409800 21.934600 
0.719153 -0.812538 -0.000427 0.614500 0.411800 21.935900 
0.719148 -0.812523 -0.000419 0.613200 0.413300 21.935300 
0.719132 -0.812564 -0.000396 0.612500 0.412400 21.934000 
0.719104 -0.812597 -0.000406 0.611700 0.413400 21.935100 
0.719082 -0.812549 -0.000452 0.610000 0.417600 21.939400 
0.719087 -0.812480 -0.000493 0.607300 0.419300 21.943800 
0.719110 -0.812488 -0.000490 0.605000 0.415100 21.944700 
0.719155 -0.812559 -0.000450 0.603200 0.407600 21.944800 
0.719234 -0.812582 -0.000419 0.601800 0.400500 21.949200 
0.719308 -0.812538 -0.000452 0.602800 0.396500 21.955700 
0.719315 -0.812526 -0.000511 0.605400 0.397900 21.957300 
0.719264 -0.812579 -0.000498 0.604300 0.404500 21.953200 
0.719204 -0.812627 -0.000429 0.599100 0.413600 21.949000 
0.719153 -0.812620 -0.000439 0.598200 0.421500 21.947400 
0.719148 -0.812584 -0.000528 0.603700 0.422000 21.948500 
0.719229 -0.812559 -0.000521 0.605600 0.411700 21.952700 
